<svg xmlns="http://www.w3.org/2000/svg" viewBox="0 0 1600 900" fill="none">
  <defs>
    <linearGradient id="sky" x1="800" y1="0" x2="800" y2="900" gradientUnits="userSpaceOnUse">
      <stop offset="0" stop-color="#7EB6DE"/>
      <stop offset="0.52" stop-color="#87AFD0"/>
      <stop offset="1" stop-color="#C3D4E3"/>
    </linearGradient>
    <filter id="cloudBlur" x="-20%" y="-20%" width="140%" height="140%" color-interpolation-filters="sRGB">
      <feGaussianBlur stdDeviation="8"/>
    </filter>
    <filter id="soft" x="-20%" y="-20%" width="140%" height="140%" color-interpolation-filters="sRGB">
      <feGaussianBlur stdDeviation="2.5"/>
    </filter>
  </defs>

  <rect width="1600" height="900" fill="url(#sky)"/>

  <g opacity="0.18" filter="url(#cloudBlur)">
    <ellipse cx="286" cy="640" rx="250" ry="92" fill="#FFFFFF"/>
    <ellipse cx="730" cy="560" rx="360" ry="128" fill="#FFFFFF"/>
    <ellipse cx="1210" cy="650" rx="260" ry="94" fill="#FFFFFF"/>
  </g>

  <g opacity="0.92">
    <path d="M110 685c0-64 64-115 146-115 25-70 104-120 199-120 96 0 180 48 208 114 77 2 139 50 139 108 0 61-64 111-146 111H203c-50 0-92-4-115-10-44-10-78-53-78-88Z" fill="#FFFFFF"/>
    <path d="M188 702c0-50 50-91 111-91 19-55 82-95 156-95 74 0 138 38 157 90 59 1 106 41 106 86 0 49-50 91-111 91H257c-38 0-71-4-87-8-34-8-57-42-57-73Z" fill="#F8FBFF"/>

    <path d="M675 560c0-84 85-151 192-151 33-90 127-156 240-156 111 0 208 64 240 150 94 3 170 67 170 141 0 81-85 151-192 151H817c-65 0-120-5-148-13-57-13-101-71-101-122Z" fill="#FFFFFF"/>
    <path d="M745 574c0-65 66-118 148-118 26-72 104-125 197-125 92 0 170 51 197 122 70 2 127 51 127 109 0 65-66 118-148 118H857c-50 0-92-4-114-10-44-10-78-51-78-96Z" fill="#F9FBFF"/>

    <path d="M1098 633c0-58 60-105 134-105 24-63 93-109 177-109 83 0 154 45 178 106 64 2 117 46 117 99 0 58-60 105-134 105h-387c-47 0-86-4-106-9-41-10-71-46-71-87Z" fill="#FFFFFF"/>
    <path d="M1162 645c0-44 45-79 100-79 17-47 72-81 137-81 65 0 122 33 140 79 52 1 94 33 94 72 0 43-45 79-100 79h-294c-34 0-61-3-74-6-30-7-51-35-51-64Z" fill="#F7FAFD"/>
  </g>

  <g filter="url(#soft)">
    <path d="M972 304c44 6 82 17 119 36" stroke="#FFFFFF" stroke-width="5" stroke-linecap="round" stroke-dasharray="10 10"/>
    <path d="M1110 176l58-34 30 20-22 31-66-17Z" stroke="#FFFFFF" stroke-width="6" stroke-linejoin="round"/>
    <path d="M1148 136l29-17 8 29" stroke="#FFFFFF" stroke-width="6" stroke-linecap="round" stroke-linejoin="round"/>
    <path d="M1177 118l-5-18 19 6" stroke="#FFFFFF" stroke-width="6" stroke-linecap="round" stroke-linejoin="round"/>
    <path d="M1149 203l-4 40" stroke="#FFFFFF" stroke-width="6" stroke-linecap="round"/>
    <path d="M1133 212l-16 37" stroke="#FFFFFF" stroke-width="6" stroke-linecap="round"/>
    <path d="M1165 213l18 31" stroke="#FFFFFF" stroke-width="6" stroke-linecap="round"/>
    <circle cx="1157" cy="143" r="3.5" fill="#FFFFFF"/>
    <circle cx="1172" cy="135" r="3.5" fill="#FFFFFF"/>
    <circle cx="1187" cy="128" r="3.5" fill="#FFFFFF"/>
    <circle cx="1201" cy="120" r="3.5" fill="#FFFFFF"/>
  </g>

  <g opacity="0.8" filter="url(#soft)">
    <path d="M194 390c17 14 32 22 48 25" stroke="#FFFFFF" stroke-width="4" stroke-linecap="round"/>
    <path d="M208 360c14 11 28 16 41 18" stroke="#FFFFFF" stroke-width="4" stroke-linecap="round"/>
    <path d="M1268 396c17 14 32 22 48 25" stroke="#FFFFFF" stroke-width="4" stroke-linecap="round"/>
    <path d="M1282 366c14 11 28 16 41 18" stroke="#FFFFFF" stroke-width="4" stroke-linecap="round"/>
    <path d="M1289 334c12 10 24 15 36 17" stroke="#FFFFFF" stroke-width="4" stroke-linecap="round"/>
  </g>

  <g opacity="0.68" filter="url(#soft)">
    <path d="M176 202l8 16 18 3-13 13 3 18-16-8-16 8 3-18-13-13 18-3 8-16Z" fill="#FFFFFF"/>
    <path d="M260 190l7 14 16 3-11 11 2 16-14-7-14 7 2-16-11-11 16-3 7-14Z" fill="#FFFFFF"/>
    <path d="M344 180l6 12 13 2-9 9 2 13-12-6-12 6 2-13-9-9 13-2 6-12Z" fill="#FFFFFF"/>
    <path d="M1040 352l9 18 20 4-14 14 3 20-18-9-18 9 3-20-14-14 20-4 9-18Z" fill="#FFFFFF"/>
    <path d="M1096 330l5 10 11 2-8 8 2 11-10-5-10 5 2-11-8-8 11-2 5-10Z" fill="#FFFFFF"/>
    <path d="M1324 372l8 16 18 3-13 13 3 18-16-8-16 8 3-18-13-13 18-3 8-16Z" fill="#FFFFFF"/>
    <path d="M1382 400l5 10 11 2-8 8 2 11-10-5-10 5 2-11-8-8 11-2 5-10Z" fill="#FFFFFF"/>
  </g>
</svg>